STARTFONT 2.1
FONT -FontForge-Bitstream Vera Sans-Book-O-Normal-Sans--16-150-75-75-P-95-ISO10646-1
SIZE 15 75 75
FONTBOUNDINGBOX 24 19 -4 -4
COMMENT "Generated by fontforge, http://fontforge.sourceforge.net"
COMMENT "Copyright (c) 2003 by Bitstream, Inc. All Rights Reserved."
STARTPROPERTIES 41
FOUNDRY "FontForge"
FAMILY_NAME "Bitstream Vera Sans"
WEIGHT_NAME "Book"
SLANT "O"
SETWIDTH_NAME "Normal"
ADD_STYLE_NAME "Sans"
PIXEL_SIZE 16
POINT_SIZE 150
RESOLUTION_X 75
RESOLUTION_Y 75
SPACING "P"
AVERAGE_WIDTH 95
CHARSET_REGISTRY "ISO10646"
CHARSET_ENCODING "1"
FONTNAME_REGISTRY ""
CHARSET_COLLECTIONS "ISO8859-9 ISO10646-1"
FONT_NAME "BitstreamVeraSans-Oblique"
FACE_NAME "Bitstream Vera Sans Oblique"
COPYRIGHT "Copyright (c) 2003 by Bitstream, Inc. All Rights Reserved."
FONT_VERSION "Release 1.10"
FONT_ASCENT 12
FONT_DESCENT 4
UNDERLINE_POSITION -2
UNDERLINE_THICKNESS 2
X_HEIGHT 8
CAP_HEIGHT 11
RAW_ASCENT 759
RAW_DESCENT 240
ITALIC_ANGLE 5056
NORM_SPACE 5
RELATIVE_WEIGHT 40
RELATIVE_SETWIDTH 50
SUPERSCRIPT_X 0
SUPERSCRIPT_Y 4
SUPERSCRIPT_SIZE 9
SUBSCRIPT_X 0
SUBSCRIPT_Y -3
SUBSCRIPT_SIZE 9
FIGURE_WIDTH 10
AVG_LOWERCASE_WIDTH 89
AVG_UPPERCASE_WIDTH 107
ENDPROPERTIES
CHARS 268
STARTCHAR space
ENCODING 32
SWIDTH 317 0
DWIDTH 5 0
BBX 1 1 0 0
BITMAP
00
ENDCHAR
STARTCHAR exclam
ENCODING 33
SWIDTH 400 0
DWIDTH 6 0
BBX 3 12 1 0
BITMAP
20
20
20
40
40
40
40
80
00
00
80
80
ENDCHAR
STARTCHAR quotedbl
ENCODING 34
SWIDTH 459 0
DWIDTH 7 0
BBX 4 4 1 8
BITMAP
90
90
90
90
ENDCHAR
STARTCHAR numbersign
ENCODING 35
SWIDTH 837 0
DWIDTH 13 0
BBX 11 11 1 0
BITMAP
0C80
0880
0980
7FE0
1900
1100
1300
FFC0
3200
2200
2600
ENDCHAR
STARTCHAR dollar
ENCODING 36
SWIDTH 636 0
DWIDTH 10 0
BBX 8 14 1 -2
BITMAP
02
04
1F
25
44
48
78
1E
09
11
92
FC
20
20
ENDCHAR
STARTCHAR percent
ENCODING 37
SWIDTH 950 0
DWIDTH 15 0
BBX 12 12 1 0
BITMAP
3820
4440
84C0
8580
8900
7200
04E0
0D10
1A10
1210
2220
41C0
ENDCHAR
STARTCHAR ampersand
ENCODING 38
SWIDTH 779 0
DWIDTH 12 0
BBX 11 12 0 0
BITMAP
0F00
1080
2000
2000
2000
3000
4820
8440
8240
8180
C280
7C40
ENDCHAR
STARTCHAR quotesingle
ENCODING 39
SWIDTH 274 0
DWIDTH 4 0
BBX 1 4 1 8
BITMAP
80
80
80
80
ENDCHAR
STARTCHAR parenleft
ENCODING 40
SWIDTH 390 0
DWIDTH 6 0
BBX 5 14 1 -2
BITMAP
18
10
20
60
40
40
80
80
80
80
80
80
C0
40
ENDCHAR
STARTCHAR parenright
ENCODING 41
SWIDTH 390 0
DWIDTH 6 0
BBX 5 14 -1 -2
BITMAP
10
18
08
08
08
08
08
08
10
10
30
20
40
C0
ENDCHAR
STARTCHAR asterisk
ENCODING 42
SWIDTH 500 0
DWIDTH 8 0
BBX 7 8 1 4
BITMAP
10
10
92
7C
38
D6
10
10
ENDCHAR
STARTCHAR plus
ENCODING 43
SWIDTH 837 0
DWIDTH 13 0
BBX 9 9 2 0
BITMAP
0800
0800
0800
0800
FF80
0800
0800
0800
0800
ENDCHAR
STARTCHAR comma
ENCODING 44
SWIDTH 317 0
DWIDTH 5 0
BBX 2 4 0 -2
BITMAP
40
40
40
80
ENDCHAR
STARTCHAR hyphen
ENCODING 45
SWIDTH 360 0
DWIDTH 6 0
BBX 4 1 1 4
BITMAP
F0
ENDCHAR
STARTCHAR period
ENCODING 46
SWIDTH 317 0
DWIDTH 5 0
BBX 1 2 1 0
BITMAP
80
80
ENDCHAR
STARTCHAR slash
ENCODING 47
SWIDTH 336 0
DWIDTH 5 0
BBX 8 13 -1 -1
BITMAP
01
03
02
06
04
08
18
10
30
20
60
40
C0
ENDCHAR
STARTCHAR zero
ENCODING 48
SWIDTH 636 0
DWIDTH 10 0
BBX 9 12 1 0
BITMAP
0E00
3100
2080
4080
4080
8080
8080
8100
8100
8300
4600
7800
ENDCHAR
STARTCHAR one
ENCODING 49
SWIDTH 636 0
DWIDTH 10 0
BBX 7 12 1 0
BITMAP
0C
34
04
08
08
08
08
08
18
10
10
FE
ENDCHAR
STARTCHAR two
ENCODING 50
SWIDTH 636 0
DWIDTH 10 0
BBX 9 12 0 0
BITMAP
1F00
3180
2080
0080
0080
0100
0200
0400
1800
2000
4000
FF00
ENDCHAR
STARTCHAR three
ENCODING 51
SWIDTH 636 0
DWIDTH 10 0
BBX 9 12 1 0
BITMAP
0F00
3080
0080
0080
0100
1E00
0300
0100
0100
0100
8600
7C00
ENDCHAR
STARTCHAR four
ENCODING 52
SWIDTH 636 0
DWIDTH 10 0
BBX 9 12 1 0
BITMAP
0180
0280
0480
0900
1100
2100
4100
8100
FF80
0200
0200
0200
ENDCHAR
STARTCHAR five
ENCODING 53
SWIDTH 636 0
DWIDTH 10 0
BBX 9 12 1 0
BITMAP
1F80
1000
2000
2000
3E00
4300
0100
0100
0100
0200
8600
7800
ENDCHAR
STARTCHAR six
ENCODING 54
SWIDTH 636 0
DWIDTH 10 0
BBX 9 12 1 0
BITMAP
0F00
3080
2000
4000
7E00
C300
8100
8100
8100
8200
4600
3C00
ENDCHAR
STARTCHAR seven
ENCODING 55
SWIDTH 636 0
DWIDTH 10 0
BBX 9 12 2 0
BITMAP
FF80
0100
0100
0200
0400
0400
0800
1000
1000
2000
4000
8000
ENDCHAR
STARTCHAR eight
ENCODING 56
SWIDTH 636 0
DWIDTH 10 0
BBX 9 12 1 0
BITMAP
1F00
2180
4080
4080
6100
3E00
4300
8100
8100
8100
C200
7C00
ENDCHAR
STARTCHAR nine
ENCODING 57
SWIDTH 636 0
DWIDTH 10 0
BBX 8 12 2 0
BITMAP
3C
62
41
81
81
83
C7
7D
02
02
84
78
ENDCHAR
STARTCHAR colon
ENCODING 58
SWIDTH 336 0
DWIDTH 5 0
BBX 3 8 1 0
BITMAP
20
20
00
00
00
00
80
80
ENDCHAR
STARTCHAR semicolon
ENCODING 59
SWIDTH 336 0
DWIDTH 5 0
BBX 3 10 0 -2
BITMAP
20
20
00
00
00
00
40
40
40
80
ENDCHAR
STARTCHAR less
ENCODING 60
SWIDTH 837 0
DWIDTH 13 0
BBX 10 9 2 0
BITMAP
0040
0380
1C00
7000
8000
7000
1C00
0380
0040
ENDCHAR
STARTCHAR equal
ENCODING 61
SWIDTH 837 0
DWIDTH 13 0
BBX 10 4 2 3
BITMAP
FFC0
0000
0000
FFC0
ENDCHAR
STARTCHAR greater
ENCODING 62
SWIDTH 837 0
DWIDTH 13 0
BBX 10 9 2 0
BITMAP
8000
7000
0E00
0380
0040
0380
0E00
7000
8000
ENDCHAR
STARTCHAR question
ENCODING 63
SWIDTH 530 0
DWIDTH 9 0
BBX 6 12 2 0
BITMAP
78
84
04
08
10
20
40
40
40
00
80
80
ENDCHAR
STARTCHAR at
ENCODING 64
SWIDTH 1000 0
DWIDTH 16 0
BBX 14 14 1 -3
BITMAP
07E0
0C10
3008
27E4
48C4
C844
9044
9044
90C8
99D0
8FE0
4000
20C0
1F80
ENDCHAR
STARTCHAR A
ENCODING 65
SWIDTH 684 0
DWIDTH 11 0
BBX 11 12 -1 0
BITMAP
0180
0280
0280
0480
0C40
0840
1040
1040
3FC0
4020
4020
8020
ENDCHAR
STARTCHAR B
ENCODING 66
SWIDTH 686 0
DWIDTH 11 0
BBX 10 12 0 0
BITMAP
3F80
2040
2040
4040
4080
7F00
4180
4080
4080
8080
8100
FE00
ENDCHAR
STARTCHAR C
ENCODING 67
SWIDTH 698 0
DWIDTH 11 0
BBX 10 12 0 0
BITMAP
0F80
30C0
2040
4000
4000
8000
8000
8000
8000
8000
4300
3E00
ENDCHAR
STARTCHAR D
ENCODING 68
SWIDTH 770 0
DWIDTH 12 0
BBX 11 12 0 0
BITMAP
3F80
20C0
2020
4020
4020
4020
4020
4020
4040
8080
8180
FE00
ENDCHAR
STARTCHAR E
ENCODING 69
SWIDTH 631 0
DWIDTH 10 0
BBX 10 12 0 0
BITMAP
3FC0
2000
2000
4000
4000
7F80
4000
4000
4000
8000
8000
FF00
ENDCHAR
STARTCHAR F
ENCODING 70
SWIDTH 575 0
DWIDTH 9 0
BBX 9 12 0 0
BITMAP
3F80
2000
2000
4000
4000
7E00
4000
4000
4000
8000
8000
8000
ENDCHAR
STARTCHAR G
ENCODING 71
SWIDTH 774 0
DWIDTH 12 0
BBX 11 12 0 0
BITMAP
0FC0
1060
2000
4000
4000
8000
83E0
8020
8040
8040
40C0
3F80
ENDCHAR
STARTCHAR H
ENCODING 72
SWIDTH 751 0
DWIDTH 12 0
BBX 12 12 0 0
BITMAP
2010
2010
2010
4020
4020
7FE0
4020
4020
4020
8040
8040
8040
ENDCHAR
STARTCHAR I
ENCODING 73
SWIDTH 294 0
DWIDTH 5 0
BBX 3 12 0 0
BITMAP
20
20
20
40
40
40
40
40
40
80
80
80
ENDCHAR
STARTCHAR J
ENCODING 74
SWIDTH 294 0
DWIDTH 5 0
BBX 7 15 -3 -3
BITMAP
02
02
02
04
04
04
04
04
08
08
08
08
10
10
E0
ENDCHAR
STARTCHAR K
ENCODING 75
SWIDTH 655 0
DWIDTH 11 0
BBX 10 12 0 0
BITMAP
2040
2080
2100
4600
4800
5000
7000
4800
4400
8200
8100
8080
ENDCHAR
STARTCHAR L
ENCODING 76
SWIDTH 557 0
DWIDTH 9 0
BBX 8 12 0 0
BITMAP
20
20
20
40
40
40
40
40
40
80
80
FF
ENDCHAR
STARTCHAR M
ENCODING 77
SWIDTH 862 0
DWIDTH 14 0
BBX 13 12 0 0
BITMAP
3018
3018
2828
4850
4850
4890
4890
4910
4610
8620
8020
8020
ENDCHAR
STARTCHAR N
ENCODING 78
SWIDTH 748 0
DWIDTH 12 0
BBX 12 12 0 0
BITMAP
3010
2810
2810
4820
4420
4420
4220
4220
4120
8140
8140
80C0
ENDCHAR
STARTCHAR O
ENCODING 79
SWIDTH 787 0
DWIDTH 13 0
BBX 11 12 1 0
BITMAP
0F80
1040
2020
4020
4020
8020
8020
8040
8040
8080
4100
3E00
ENDCHAR
STARTCHAR P
ENCODING 80
SWIDTH 603 0
DWIDTH 10 0
BBX 9 12 0 0
BITMAP
3F00
2180
2080
4080
4080
4100
7E00
4000
4000
8000
8000
8000
ENDCHAR
STARTCHAR Q
ENCODING 81
SWIDTH 787 0
DWIDTH 13 0
BBX 11 14 1 -2
BITMAP
0F80
1040
2020
4020
4020
8020
8020
8040
8040
8080
4180
3E00
0200
0300
ENDCHAR
STARTCHAR R
ENCODING 82
SWIDTH 694 0
DWIDTH 11 0
BBX 9 12 0 0
BITMAP
3F00
2180
2080
4080
4080
4100
7E00
4100
4100
8100
8080
8080
ENDCHAR
STARTCHAR S
ENCODING 83
SWIDTH 634 0
DWIDTH 10 0
BBX 9 12 1 0
BITMAP
1F00
2180
4080
4000
4000
3000
0E00
0100
0100
8100
C200
7C00
ENDCHAR
STARTCHAR T
ENCODING 84
SWIDTH 610 0
DWIDTH 10 0
BBX 9 12 1 0
BITMAP
FF80
0800
0800
0800
1000
1000
1000
1000
1000
2000
2000
2000
ENDCHAR
STARTCHAR U
ENCODING 85
SWIDTH 731 0
DWIDTH 12 0
BBX 10 12 1 0
BITMAP
4040
4040
4080
4080
8080
8080
8080
8100
8100
8100
C200
7C00
ENDCHAR
STARTCHAR V
ENCODING 86
SWIDTH 684 0
DWIDTH 11 0
BBX 11 12 1 0
BITMAP
8020
8040
8040
4080
4100
4100
4200
4200
2400
2800
2800
3000
ENDCHAR
STARTCHAR W
ENCODING 87
SWIDTH 988 0
DWIDTH 16 0
BBX 15 12 2 0
BITMAP
8102
8104
8304
8308
8508
8508
8910
8910
50A0
50A0
60C0
60C0
ENDCHAR
STARTCHAR X
ENCODING 88
SWIDTH 685 0
DWIDTH 11 0
BBX 12 12 -1 0
BITMAP
1010
0820
0840
0480
0500
0200
0600
0900
1100
2080
4080
8040
ENDCHAR
STARTCHAR Y
ENCODING 89
SWIDTH 610 0
DWIDTH 10 0
BBX 10 12 1 0
BITMAP
8040
4080
4100
2200
2400
1800
1000
1000
1000
2000
2000
2000
ENDCHAR
STARTCHAR Z
ENCODING 90
SWIDTH 685 0
DWIDTH 11 0
BBX 12 12 0 0
BITMAP
3FF0
0020
0040
0080
0100
0200
0400
0800
1000
2000
4000
FFC0
ENDCHAR
STARTCHAR bracketleft
ENCODING 91
SWIDTH 390 0
DWIDTH 6 0
BBX 6 14 1 -2
BITMAP
1C
10
20
20
20
20
20
40
40
40
40
40
80
E0
ENDCHAR
STARTCHAR backslash
ENCODING 92
SWIDTH 336 0
DWIDTH 5 0
BBX 3 13 1 -1
BITMAP
80
C0
C0
40
40
40
40
40
60
60
20
20
20
ENDCHAR
STARTCHAR bracketright
ENCODING 93
SWIDTH 390 0
DWIDTH 6 0
BBX 6 14 0 -2
BITMAP
3C
04
08
08
08
08
08
10
10
10
10
10
20
E0
ENDCHAR
STARTCHAR asciicircum
ENCODING 94
SWIDTH 837 0
DWIDTH 13 0
BBX 8 4 3 8
BITMAP
18
3C
42
81
ENDCHAR
STARTCHAR underscore
ENCODING 95
SWIDTH 500 0
DWIDTH 8 0
BBX 8 1 0 -4
BITMAP
FF
ENDCHAR
STARTCHAR grave
ENCODING 96
SWIDTH 500 0
DWIDTH 8 0
BBX 3 3 2 10
BITMAP
C0
40
60
ENDCHAR
STARTCHAR a
ENCODING 97
SWIDTH 612 0
DWIDTH 10 0
BBX 8 9 0 0
BITMAP
3E
41
01
3F
41
83
83
86
7A
ENDCHAR
STARTCHAR b
ENCODING 98
SWIDTH 634 0
DWIDTH 10 0
BBX 9 12 0 0
BITMAP
2000
2000
2000
4F00
7180
6080
4080
4080
4080
C100
C200
BC00
ENDCHAR
STARTCHAR c
ENCODING 99
SWIDTH 549 0
DWIDTH 9 0
BBX 8 9 0 0
BITMAP
1E
21
40
80
80
80
80
C4
7C
ENDCHAR
STARTCHAR d
ENCODING 100
SWIDTH 634 0
DWIDTH 10 0
BBX 10 12 0 0
BITMAP
0040
0040
0040
1E80
2180
4080
8080
8080
8180
8100
C700
7D00
ENDCHAR
STARTCHAR e
ENCODING 101
SWIDTH 615 0
DWIDTH 9 0
BBX 8 9 0 0
BITMAP
1E
23
41
C1
FF
80
80
C2
7C
ENDCHAR
STARTCHAR f
ENCODING 102
SWIDTH 352 0
DWIDTH 6 0
BBX 7 12 0 0
BITMAP
1E
20
20
FC
20
40
40
40
40
40
80
80
ENDCHAR
STARTCHAR g
ENCODING 103
SWIDTH 634 0
DWIDTH 10 0
BBX 9 12 0 -3
BITMAP
1E80
2180
4100
8100
8100
8100
8300
C600
7A00
0200
8400
F800
ENDCHAR
STARTCHAR h
ENCODING 104
SWIDTH 633 0
DWIDTH 10 0
BBX 9 12 0 0
BITMAP
2000
2000
2000
4F00
7080
6080
4080
4080
4080
8100
8100
8100
ENDCHAR
STARTCHAR i
ENCODING 105
SWIDTH 277 0
DWIDTH 4 0
BBX 3 12 0 0
BITMAP
20
20
00
20
20
40
40
40
40
40
80
80
ENDCHAR
STARTCHAR j
ENCODING 106
SWIDTH 277 0
DWIDTH 4 0
BBX 6 15 -2 -3
BITMAP
04
04
00
08
08
08
10
10
10
10
10
10
20
20
C0
ENDCHAR
STARTCHAR k
ENCODING 107
SWIDTH 579 0
DWIDTH 9 0
BBX 8 12 0 0
BITMAP
20
20
20
41
42
4C
50
60
50
88
84
82
ENDCHAR
STARTCHAR l
ENCODING 108
SWIDTH 277 0
DWIDTH 4 0
BBX 3 12 0 0
BITMAP
20
20
20
40
40
40
40
40
40
80
80
80
ENDCHAR
STARTCHAR m
ENCODING 109
SWIDTH 974 0
DWIDTH 15 0
BBX 14 9 0 0
BITMAP
2E78
31C4
6104
4104
4104
4104
4208
8208
8208
ENDCHAR
STARTCHAR n
ENCODING 110
SWIDTH 633 0
DWIDTH 10 0
BBX 9 9 0 0
BITMAP
5F00
6080
4080
4080
C080
8080
8100
8100
8100
ENDCHAR
STARTCHAR o
ENCODING 111
SWIDTH 611 0
DWIDTH 9 0
BBX 8 9 0 0
BITMAP
1E
63
41
81
81
81
82
C6
78
ENDCHAR
STARTCHAR p
ENCODING 112
SWIDTH 634 0
DWIDTH 9 0
BBX 9 12 -1 -3
BITMAP
2F00
3180
2080
6080
4080
4080
4100
6200
7C00
8000
8000
8000
ENDCHAR
STARTCHAR q
ENCODING 113
SWIDTH 634 0
DWIDTH 10 0
BBX 9 12 0 -3
BITMAP
1E80
2180
4180
8100
8100
8100
8300
C700
7900
0200
0200
0200
ENDCHAR
STARTCHAR r
ENCODING 114
SWIDTH 411 0
DWIDTH 7 0
BBX 7 9 0 0
BITMAP
2E
30
60
40
40
40
40
80
80
ENDCHAR
STARTCHAR s
ENCODING 115
SWIDTH 520 0
DWIDTH 8 0
BBX 8 9 0 0
BITMAP
1E
61
40
60
38
06
02
86
78
ENDCHAR
STARTCHAR t
ENCODING 116
SWIDTH 392 0
DWIDTH 6 0
BBX 5 11 1 0
BITMAP
20
20
F8
40
40
40
80
80
80
80
70
ENDCHAR
STARTCHAR u
ENCODING 117
SWIDTH 633 0
DWIDTH 10 0
BBX 9 9 0 0
BITMAP
4080
4080
4100
8100
8100
8100
8300
8200
7E00
ENDCHAR
STARTCHAR v
ENCODING 118
SWIDTH 591 0
DWIDTH 9 0
BBX 9 9 0 0
BITMAP
8080
8100
8200
8200
4400
4800
4800
5000
6000
ENDCHAR
STARTCHAR w
ENCODING 119
SWIDTH 817 0
DWIDTH 13 0
BBX 12 9 1 0
BITMAP
8210
8610
8A20
8A20
9240
9240
A280
A280
C300
ENDCHAR
STARTCHAR x
ENCODING 120
SWIDTH 591 0
DWIDTH 9 0
BBX 9 9 -1 0
BITMAP
2080
1100
1200
0C00
0800
1400
2200
4200
8100
ENDCHAR
STARTCHAR y
ENCODING 121
SWIDTH 591 0
DWIDTH 9 0
BBX 10 12 -1 -3
BITMAP
4040
4080
2080
2100
2200
2200
1400
1800
1800
1000
2000
C000
ENDCHAR
STARTCHAR z
ENCODING 122
SWIDTH 524 0
DWIDTH 8 0
BBX 9 9 -1 0
BITMAP
3F80
0100
0200
0400
0800
1000
2000
4000
FE00
ENDCHAR
STARTCHAR braceleft
ENCODING 123
SWIDTH 636 0
DWIDTH 10 0
BBX 8 15 2 -3
BITMAP
07
08
08
08
08
10
10
E0
30
10
20
20
20
20
18
ENDCHAR
STARTCHAR bar
ENCODING 124
SWIDTH 336 0
DWIDTH 5 0
BBX 1 16 2 -4
BITMAP
80
80
80
80
80
80
80
80
80
80
80
80
80
80
80
80
ENDCHAR
STARTCHAR braceright
ENCODING 125
SWIDTH 636 0
DWIDTH 10 0
BBX 7 15 0 -3
BITMAP
18
04
04
04
04
08
0C
06
08
08
18
10
10
10
E0
ENDCHAR
STARTCHAR asciitilde
ENCODING 126
SWIDTH 837 0
DWIDTH 13 0
BBX 10 2 2 4
BITMAP
7840
8780
ENDCHAR
STARTCHAR nonbreakingspace
ENCODING 160
SWIDTH 636 0
DWIDTH 10 0
BBX 1 1 0 0
BITMAP
00
ENDCHAR
STARTCHAR exclamdown
ENCODING 161
SWIDTH 400 0
DWIDTH 6 0
BBX 3 12 1 0
BITMAP
20
20
00
00
40
40
40
40
40
C0
80
80
ENDCHAR
STARTCHAR cent
ENCODING 162
SWIDTH 636 0
DWIDTH 10 0
BBX 7 13 1 -2
BITMAP
04
04
1E
6A
48
88
88
90
90
D4
78
10
20
ENDCHAR
STARTCHAR sterling
ENCODING 163
SWIDTH 636 0
DWIDTH 10 0
BBX 10 12 0 0
BITMAP
07C0
0C00
0800
1000
1000
1000
7F00
1000
2000
2000
2000
FF00
ENDCHAR
STARTCHAR currency
ENCODING 164
SWIDTH 636 0
DWIDTH 10 0
BBX 9 9 1 0
BITMAP
8080
7F00
6300
4100
4100
4100
6300
7F00
8080
ENDCHAR
STARTCHAR yen
ENCODING 165
SWIDTH 636 0
DWIDTH 10 0
BBX 9 12 1 0
BITMAP
4080
4100
4100
2200
2400
E700
1800
1800
FF00
1000
2000
2000
ENDCHAR
STARTCHAR brokenbar
ENCODING 166
SWIDTH 336 0
DWIDTH 5 0
BBX 1 14 2 -3
BITMAP
80
80
80
80
80
80
00
00
80
80
80
80
80
80
ENDCHAR
STARTCHAR section
ENCODING 167
SWIDTH 500 0
DWIDTH 8 0
BBX 6 14 1 -2
BITMAP
3C
40
40
70
78
8C
84
84
C4
78
18
08
08
F0
ENDCHAR
STARTCHAR dieresis
ENCODING 168
SWIDTH 500 0
DWIDTH 8 0
BBX 5 2 2 10
BITMAP
D8
D8
ENDCHAR
STARTCHAR copyright
ENCODING 169
SWIDTH 1000 0
DWIDTH 16 0
BBX 12 12 2 0
BITMAP
0F00
30C0
4F20
4820
9010
9010
9010
9010
4820
4F20
30C0
0F00
ENDCHAR
STARTCHAR ordfeminine
ENCODING 170
SWIDTH 471 0
DWIDTH 8 0
BBX 6 8 1 4
BITMAP
78
04
7C
84
8C
F8
00
F8
ENDCHAR
STARTCHAR guillemotleft
ENCODING 171
SWIDTH 617 0
DWIDTH 10 0
BBX 7 7 1 1
BITMAP
12
36
6C
90
48
6C
24
ENDCHAR
STARTCHAR logicalnot
ENCODING 172
SWIDTH 837 0
DWIDTH 13 0
BBX 10 5 2 2
BITMAP
FFC0
0040
0040
0040
0040
ENDCHAR
STARTCHAR sfthyphen
ENCODING 173
SWIDTH 360 0
DWIDTH 6 0
BBX 4 2 1 3
BITMAP
F0
F0
ENDCHAR
STARTCHAR registered
ENCODING 174
SWIDTH 1000 0
DWIDTH 16 0
BBX 12 12 2 0
BITMAP
0F00
30C0
4F20
48A0
8890
8F10
8910
8990
48A0
48E0
30C0
0F00
ENDCHAR
STARTCHAR macron
ENCODING 175
SWIDTH 500 0
DWIDTH 8 0
BBX 5 1 2 10
BITMAP
F8
ENDCHAR
STARTCHAR degree
ENCODING 176
SWIDTH 500 0
DWIDTH 8 0
BBX 5 5 2 7
BITMAP
70
88
88
88
70
ENDCHAR
STARTCHAR plusminus
ENCODING 177
SWIDTH 837 0
DWIDTH 13 0
BBX 9 10 2 0
BITMAP
0800
0800
0800
FF80
0800
0800
0800
0000
0000
FF80
ENDCHAR
STARTCHAR twosuperior
ENCODING 178
SWIDTH 400 0
DWIDTH 6 0
BBX 6 7 0 5
BITMAP
78
04
04
08
30
40
F8
ENDCHAR
STARTCHAR threesuperior
ENCODING 179
SWIDTH 400 0
DWIDTH 6 0
BBX 6 7 0 5
BITMAP
38
04
04
38
04
04
F8
ENDCHAR
STARTCHAR acute
ENCODING 180
SWIDTH 500 0
DWIDTH 8 0
BBX 4 3 3 10
BITMAP
30
60
C0
ENDCHAR
STARTCHAR mu
ENCODING 181
SWIDTH 636 0
DWIDTH 10 0
BBX 9 12 0 -3
BITMAP
2080
2080
2080
4080
4100
4100
4100
4300
7F80
8000
8000
8000
ENDCHAR
STARTCHAR paragraph
ENCODING 182
SWIDTH 636 0
DWIDTH 10 0
BBX 8 14 1 -2
BITMAP
3F
79
F9
F9
F3
F2
72
12
12
32
32
24
24
24
ENDCHAR
STARTCHAR periodcentered
ENCODING 183
SWIDTH 317 0
DWIDTH 5 0
BBX 1 2 2 5
BITMAP
80
80
ENDCHAR
STARTCHAR cedilla
ENCODING 184
SWIDTH 500 0
DWIDTH 8 0
BBX 4 3 0 -3
BITMAP
10
10
E0
ENDCHAR
STARTCHAR onesuperior
ENCODING 185
SWIDTH 400 0
DWIDTH 6 0
BBX 5 7 1 5
BITMAP
70
10
10
20
20
20
F8
ENDCHAR
STARTCHAR ordmasculine
ENCODING 186
SWIDTH 471 0
DWIDTH 8 0
BBX 6 8 1 4
BITMAP
38
44
84
84
88
70
00
F8
ENDCHAR
STARTCHAR guillemotright
ENCODING 187
SWIDTH 617 0
DWIDTH 10 0
BBX 7 7 1 1
BITMAP
48
6C
24
12
6C
D8
90
ENDCHAR
STARTCHAR onequarter
ENCODING 188
SWIDTH 969 0
DWIDTH 16 0
BBX 12 12 1 0
BITMAP
7010
1020
1040
2040
2080
2110
FA30
0450
0890
0930
11F0
2020
ENDCHAR
STARTCHAR onehalf
ENCODING 189
SWIDTH 969 0
DWIDTH 16 0
BBX 14 12 1 0
BITMAP
7010
1020
1040
2040
2080
217C
FA04
0404
0808
0830
1060
20FC
ENDCHAR
STARTCHAR threequarters
ENCODING 190
SWIDTH 969 0
DWIDTH 16 0
BBX 13 12 0 0
BITMAP
3808
0410
0420
3820
0440
0488
F918
0228
0448
0498
08F8
1010
ENDCHAR
STARTCHAR questiondown
ENCODING 191
SWIDTH 530 0
DWIDTH 9 0
BBX 7 12 1 0
BITMAP
02
02
00
04
04
08
10
20
C0
80
84
78
ENDCHAR
STARTCHAR Agrave
ENCODING 192
SWIDTH 684 0
DWIDTH 11 0
BBX 11 15 -1 0
BITMAP
0100
0080
0000
0180
0280
0280
0480
0C40
0840
1040
1040
3FC0
4020
4020
8020
ENDCHAR
STARTCHAR Aacute
ENCODING 193
SWIDTH 684 0
DWIDTH 11 0
BBX 11 15 -1 0
BITMAP
00C0
0180
0000
0180
0280
0280
0480
0C40
0840
1040
1040
3FC0
4020
4020
8020
ENDCHAR
STARTCHAR Acircumflex
ENCODING 194
SWIDTH 684 0
DWIDTH 11 0
BBX 11 15 -1 0
BITMAP
0380
0680
0000
0180
0280
0280
0480
0C40
0840
1040
1040
3FC0
4020
4020
8020
ENDCHAR
STARTCHAR Atilde
ENCODING 195
SWIDTH 684 0
DWIDTH 11 0
BBX 12 15 -1 0
BITMAP
01B0
0260
0000
0180
0280
0280
0480
0C40
0840
1040
1040
3FC0
4020
4020
8020
ENDCHAR
STARTCHAR Adieresis
ENCODING 196
SWIDTH 684 0
DWIDTH 11 0
BBX 11 15 -1 0
BITMAP
06C0
0480
0000
0180
0280
0280
0480
0C40
0840
1040
1040
3FC0
4020
4020
8020
ENDCHAR
STARTCHAR Aring
ENCODING 197
SWIDTH 684 0
DWIDTH 11 0
BBX 11 15 -1 0
BITMAP
0180
0240
0240
0180
0280
0280
0480
0440
0840
1040
1040
3FC0
2020
4020
8020
ENDCHAR
STARTCHAR AE
ENCODING 198
SWIDTH 974 0
DWIDTH 16 0
BBX 17 12 -1 0
BITMAP
01FF80
014000
024000
044000
044000
087F00
108000
108000
3F8000
408000
408000
81FE00
ENDCHAR
STARTCHAR Ccedilla
ENCODING 199
SWIDTH 698 0
DWIDTH 11 0
BBX 10 15 0 -3
BITMAP
0F80
30C0
2040
4000
4000
8000
8000
8000
8000
8000
4300
3E00
0400
0400
3C00
ENDCHAR
STARTCHAR Egrave
ENCODING 200
SWIDTH 631 0
DWIDTH 10 0
BBX 10 15 0 0
BITMAP
0200
0200
0000
3FC0
2000
2000
4000
4000
7F80
4000
4000
4000
8000
8000
FF00
ENDCHAR
STARTCHAR Eacute
ENCODING 201
SWIDTH 631 0
DWIDTH 10 0
BBX 10 15 0 0
BITMAP
0180
0200
0000
3FC0
2000
2000
4000
4000
7F80
4000
4000
4000
8000
8000
FF00
ENDCHAR
STARTCHAR Ecircumflex
ENCODING 202
SWIDTH 631 0
DWIDTH 10 0
BBX 10 15 0 0
BITMAP
0600
0900
0000
3FC0
2000
2000
4000
4000
7F80
4000
4000
4000
8000
8000
FF00
ENDCHAR
STARTCHAR Edieresis
ENCODING 203
SWIDTH 631 0
DWIDTH 10 0
BBX 10 15 0 0
BITMAP
1B00
1B00
0000
3FC0
2000
2000
4000
4000
7F80
4000
4000
4000
8000
8000
FF00
ENDCHAR
STARTCHAR Igrave
ENCODING 204
SWIDTH 294 0
DWIDTH 5 0
BBX 5 15 0 0
BITMAP
10
08
00
20
20
20
40
40
40
40
40
40
80
80
80
ENDCHAR
STARTCHAR Iacute
ENCODING 205
SWIDTH 294 0
DWIDTH 5 0
BBX 6 15 0 0
BITMAP
0C
10
00
20
20
20
40
40
40
40
40
40
80
80
80
ENDCHAR
STARTCHAR Icircumflex
ENCODING 206
SWIDTH 294 0
DWIDTH 5 0
BBX 5 15 0 0
BITMAP
38
48
00
20
20
20
40
40
40
40
40
40
80
80
80
ENDCHAR
STARTCHAR Idieresis
ENCODING 207
SWIDTH 294 0
DWIDTH 5 0
BBX 5 15 0 0
BITMAP
48
48
00
20
20
20
40
40
40
40
40
40
80
80
80
ENDCHAR
STARTCHAR Eth
ENCODING 208
SWIDTH 774 0
DWIDTH 12 0
BBX 11 12 0 0
BITMAP
3F80
20C0
2020
4020
4020
F820
4020
4020
4040
8080
8100
FE00
ENDCHAR
STARTCHAR Ntilde
ENCODING 209
SWIDTH 748 0
DWIDTH 12 0
BBX 12 15 0 0
BITMAP
0320
04C0
0000
3010
2810
2810
4820
4420
4420
4220
4220
4120
8140
8140
80C0
ENDCHAR
STARTCHAR Ograve
ENCODING 210
SWIDTH 787 0
DWIDTH 13 0
BBX 11 15 1 0
BITMAP
0200
0100
0000
0F80
1040
2020
4020
4020
8020
8020
8040
8040
8080
4100
3E00
ENDCHAR
STARTCHAR Oacute
ENCODING 211
SWIDTH 787 0
DWIDTH 13 0
BBX 11 15 1 0
BITMAP
0180
0300
0000
0F80
1040
2020
4020
4020
8020
8020
8040
8040
8080
4100
3E00
ENDCHAR
STARTCHAR Ocircumflex
ENCODING 212
SWIDTH 787 0
DWIDTH 13 0
BBX 11 15 1 0
BITMAP
0700
0900
0000
0F80
1040
2020
4020
4020
8020
8020
8040
8040
8080
4100
3E00
ENDCHAR
STARTCHAR Otilde
ENCODING 213
SWIDTH 787 0
DWIDTH 13 0
BBX 11 15 1 0
BITMAP
0740
05C0
0000
0F80
1040
2020
4020
4020
8020
8020
8040
8040
8080
4100
3E00
ENDCHAR
STARTCHAR Odieresis
ENCODING 214
SWIDTH 787 0
DWIDTH 13 0
BBX 11 15 1 0
BITMAP
0D80
0900
0000
0F80
1040
2020
4020
4020
8020
8020
8040
8040
8080
4100
3E00
ENDCHAR
STARTCHAR multiply
ENCODING 215
SWIDTH 837 0
DWIDTH 13 0
BBX 9 9 2 1
BITMAP
8080
4100
2200
1400
0800
1400
2200
4100
8080
ENDCHAR
STARTCHAR Oslash
ENCODING 216
SWIDTH 787 0
DWIDTH 13 0
BBX 13 12 0 0
BITMAP
07C8
0830
1030
2050
2190
4210
4410
4820
5020
6040
6080
9F00
ENDCHAR
STARTCHAR Ugrave
ENCODING 217
SWIDTH 731 0
DWIDTH 12 0
BBX 10 15 1 0
BITMAP
0400
0200
0000
4040
4040
4080
4080
8080
8080
8080
8100
8100
8100
C200
7C00
ENDCHAR
STARTCHAR Uacute
ENCODING 218
SWIDTH 731 0
DWIDTH 12 0
BBX 10 15 1 0
BITMAP
0100
0200
0000
4040
4040
4080
4080
8080
8080
8080
8100
8100
8100
C200
7C00
ENDCHAR
STARTCHAR Ucircumflex
ENCODING 219
SWIDTH 731 0
DWIDTH 12 0
BBX 10 15 1 0
BITMAP
0E00
1B00
0000
4040
4040
4080
4080
8080
8080
8080
8100
8100
8100
C200
7C00
ENDCHAR
STARTCHAR Udieresis
ENCODING 220
SWIDTH 731 0
DWIDTH 12 0
BBX 10 15 1 0
BITMAP
1B00
1B00
0000
4040
4040
4080
4080
8080
8080
8080
8100
8100
8100
C200
7C00
ENDCHAR
STARTCHAR Yacute
ENCODING 221
SWIDTH 610 0
DWIDTH 10 0
BBX 10 15 1 0
BITMAP
0200
0400
0000
8040
4080
4100
2200
2400
1800
1000
1000
1000
2000
2000
2000
ENDCHAR
STARTCHAR Thorn
ENCODING 222
SWIDTH 607 0
DWIDTH 10 0
BBX 9 12 0 0
BITMAP
2000
2000
3F00
4180
4080
4080
4080
4100
7E00
8000
8000
8000
ENDCHAR
STARTCHAR germandbls
ENCODING 223
SWIDTH 629 0
DWIDTH 10 0
BBX 9 12 0 0
BITMAP
0F00
1080
2080
2380
2400
6400
4400
4200
4100
4080
8180
9E00
ENDCHAR
STARTCHAR agrave
ENCODING 224
SWIDTH 612 0
DWIDTH 10 0
BBX 8 13 0 0
BITMAP
10
08
0C
00
3E
41
01
3F
41
83
83
86
7A
ENDCHAR
STARTCHAR aacute
ENCODING 225
SWIDTH 612 0
DWIDTH 10 0
BBX 8 13 0 0
BITMAP
02
04
08
00
3E
41
01
3F
41
83
83
86
7A
ENDCHAR
STARTCHAR acircumflex
ENCODING 226
SWIDTH 612 0
DWIDTH 10 0
BBX 8 13 0 0
BITMAP
06
0A
13
00
3E
41
01
3F
41
83
83
86
7A
ENDCHAR
STARTCHAR atilde
ENCODING 227
SWIDTH 612 0
DWIDTH 10 0
BBX 9 12 0 0
BITMAP
0C80
1300
0000
3E00
4100
0100
3F00
4100
8300
8300
8600
7A00
ENDCHAR
STARTCHAR adieresis
ENCODING 228
SWIDTH 612 0
DWIDTH 10 0
BBX 8 12 0 0
BITMAP
1B
1B
00
3E
41
01
3F
41
83
83
86
7A
ENDCHAR
STARTCHAR aring
ENCODING 229
SWIDTH 612 0
DWIDTH 10 0
BBX 8 14 0 0
BITMAP
1C
12
12
1C
00
3E
41
01
3F
41
83
83
86
7A
ENDCHAR
STARTCHAR ae
ENCODING 230
SWIDTH 995 0
DWIDTH 16 0
BBX 15 9 0 0
BITMAP
3E7C
41C6
0182
3F02
41FE
8100
8300
8784
78F8
ENDCHAR
STARTCHAR ccedilla
ENCODING 231
SWIDTH 549 0
DWIDTH 9 0
BBX 8 12 0 -3
BITMAP
1E
21
40
80
80
80
80
C4
7C
08
08
70
ENDCHAR
STARTCHAR egrave
ENCODING 232
SWIDTH 615 0
DWIDTH 9 0
BBX 8 13 0 0
BITMAP
18
08
0C
00
1E
23
41
C1
FF
80
80
C2
7C
ENDCHAR
STARTCHAR eacute
ENCODING 233
SWIDTH 615 0
DWIDTH 9 0
BBX 8 13 0 0
BITMAP
02
04
08
00
1E
23
41
C1
FF
80
80
C2
7C
ENDCHAR
STARTCHAR ecircumflex
ENCODING 234
SWIDTH 615 0
DWIDTH 9 0
BBX 8 13 0 0
BITMAP
06
0A
11
00
1E
23
41
C1
FF
80
80
C2
7C
ENDCHAR
STARTCHAR edieresis
ENCODING 235
SWIDTH 615 0
DWIDTH 9 0
BBX 8 12 0 0
BITMAP
1B
1B
00
1E
23
41
C1
FF
80
80
C2
7C
ENDCHAR
STARTCHAR igrave
ENCODING 236
SWIDTH 277 0
DWIDTH 4 0
BBX 3 13 0 0
BITMAP
C0
40
60
00
20
20
40
40
40
40
40
80
80
ENDCHAR
STARTCHAR iacute
ENCODING 237
SWIDTH 277 0
DWIDTH 4 0
BBX 5 13 0 0
BITMAP
18
30
60
00
20
20
40
40
40
40
40
80
80
ENDCHAR
STARTCHAR icircumflex
ENCODING 238
SWIDTH 277 0
DWIDTH 4 0
BBX 5 13 0 0
BITMAP
30
70
C8
00
20
20
40
40
40
40
40
80
80
ENDCHAR
STARTCHAR idieresis
ENCODING 239
SWIDTH 277 0
DWIDTH 4 0
BBX 5 12 0 0
BITMAP
D8
D8
00
20
20
40
40
40
40
40
80
80
ENDCHAR
STARTCHAR eth
ENCODING 240
SWIDTH 611 0
DWIDTH 10 0
BBX 8 12 0 0
BITMAP
0B
3C
02
1F
21
41
81
81
81
82
C6
78
ENDCHAR
STARTCHAR ntilde
ENCODING 241
SWIDTH 633 0
DWIDTH 10 0
BBX 9 12 0 0
BITMAP
0C80
1300
0000
5F00
6080
4080
4080
C080
8080
8100
8100
8100
ENDCHAR
STARTCHAR ograve
ENCODING 242
SWIDTH 611 0
DWIDTH 9 0
BBX 8 13 0 0
BITMAP
18
08
0C
00
1E
63
41
81
81
81
82
C6
78
ENDCHAR
STARTCHAR oacute
ENCODING 243
SWIDTH 611 0
DWIDTH 9 0
BBX 8 13 0 0
BITMAP
02
04
08
00
1E
63
41
81
81
81
82
C6
78
ENDCHAR
STARTCHAR ocircumflex
ENCODING 244
SWIDTH 611 0
DWIDTH 9 0
BBX 8 13 0 0
BITMAP
06
0A
11
00
1E
63
41
81
81
81
82
C6
78
ENDCHAR
STARTCHAR otilde
ENCODING 245
SWIDTH 611 0
DWIDTH 9 0
BBX 9 12 0 0
BITMAP
0C80
1300
0000
1E00
6300
4100
8100
8100
8100
8200
C600
7800
ENDCHAR
STARTCHAR odieresis
ENCODING 246
SWIDTH 611 0
DWIDTH 9 0
BBX 8 12 0 0
BITMAP
1B
1B
00
1E
63
41
81
81
81
82
C6
78
ENDCHAR
STARTCHAR divide
ENCODING 247
SWIDTH 837 0
DWIDTH 13 0
BBX 10 7 2 1
BITMAP
0C00
0C00
0000
FFC0
0000
0C00
0C00
ENDCHAR
STARTCHAR oslash
ENCODING 248
SWIDTH 611 0
DWIDTH 9 0
BBX 10 9 -1 0
BITMAP
0F40
1180
2180
4280
4C80
5080
6100
6200
BC00
ENDCHAR
STARTCHAR ugrave
ENCODING 249
SWIDTH 633 0
DWIDTH 10 0
BBX 9 13 0 0
BITMAP
1800
0800
0C00
0000
4080
4080
4100
8100
8100
8100
8300
8200
7E00
ENDCHAR
STARTCHAR uacute
ENCODING 250
SWIDTH 633 0
DWIDTH 10 0
BBX 9 13 0 0
BITMAP
0200
0400
0800
0000
4080
4080
4100
8100
8100
8100
8300
8200
7E00
ENDCHAR
STARTCHAR ucircumflex
ENCODING 251
SWIDTH 633 0
DWIDTH 10 0
BBX 9 13 0 0
BITMAP
0600
0A00
1300
0000
4080
4080
4100
8100
8100
8100
8300
8200
7E00
ENDCHAR
STARTCHAR udieresis
ENCODING 252
SWIDTH 633 0
DWIDTH 10 0
BBX 9 12 0 0
BITMAP
1B00
1B00
0000
4080
4080
4100
8100
8100
8100
8300
8200
7E00
ENDCHAR
STARTCHAR yacute
ENCODING 253
SWIDTH 591 0
DWIDTH 9 0
BBX 10 16 -1 -3
BITMAP
0100
0200
0400
0000
4040
4080
2080
2100
2200
2200
1400
1800
1800
1000
2000
C000
ENDCHAR
STARTCHAR thorn
ENCODING 254
SWIDTH 634 0
DWIDTH 9 0
BBX 9 15 -1 -3
BITMAP
1000
1000
3000
2F00
3180
2080
2080
6080
4080
4100
6300
5C00
C000
8000
8000
ENDCHAR
STARTCHAR ydieresis
ENCODING 255
SWIDTH 591 0
DWIDTH 9 0
BBX 10 15 -1 -3
BITMAP
0D80
0900
0000
4040
4080
2080
2100
2200
2200
1400
1800
1800
1000
2000
C000
ENDCHAR
STARTCHAR Cacute
ENCODING 262
SWIDTH 698 0
DWIDTH 11 0
BBX 10 15 0 0
BITMAP
00C0
0100
0000
0F80
30C0
2040
4000
4000
8000
8000
8000
8000
8000
4300
3E00
ENDCHAR
STARTCHAR cacute
ENCODING 263
SWIDTH 549 0
DWIDTH 9 0
BBX 8 13 0 0
BITMAP
02
04
0C
00
1E
21
40
80
80
80
80
C4
7C
ENDCHAR
STARTCHAR Ccaron
ENCODING 268
SWIDTH 698 0
DWIDTH 11 0
BBX 10 15 0 0
BITMAP
0240
0380
0000
0F80
30C0
2040
4000
4000
8000
8000
8000
8000
8000
4300
3E00
ENDCHAR
STARTCHAR ccaron
ENCODING 269
SWIDTH 549 0
DWIDTH 9 0
BBX 8 13 0 0
BITMAP
13
0E
0C
00
1E
21
40
80
80
80
80
C4
7C
ENDCHAR
STARTCHAR dcroat
ENCODING 273
SWIDTH 634 0
DWIDTH 10 0
BBX 11 12 0 0
BITMAP
0040
03E0
0040
1E80
2180
4080
8080
8080
8180
8100
C700
7D00
ENDCHAR
STARTCHAR Gbreve
ENCODING 286
SWIDTH 774 0
DWIDTH 12 0
BBX 11 15 0 0
BITMAP
0440
0380
0000
0FC0
1060
2000
4000
4000
8000
83E0
8020
8040
8040
40C0
3F80
ENDCHAR
STARTCHAR gbreve
ENCODING 287
SWIDTH 634 0
DWIDTH 10 0
BBX 9 15 0 -3
BITMAP
1100
0E00
0000
1E80
2180
4100
8100
8100
8100
8300
C600
7A00
0200
8400
F800
ENDCHAR
STARTCHAR Idotaccent
ENCODING 304
SWIDTH 294 0
DWIDTH 5 0
BBX 4 15 0 0
BITMAP
10
10
00
20
20
20
40
40
40
40
40
40
80
80
80
ENDCHAR
STARTCHAR dotlessi
ENCODING 305
SWIDTH 277 0
DWIDTH 4 0
BBX 3 9 0 0
BITMAP
20
20
40
40
40
40
40
80
80
ENDCHAR
STARTCHAR Lslash
ENCODING 321
SWIDTH 562 0
DWIDTH 9 0
BBX 8 12 0 0
BITMAP
20
20
20
40
44
78
E0
C0
40
80
80
FF
ENDCHAR
STARTCHAR lslash
ENCODING 322
SWIDTH 287 0
DWIDTH 4 0
BBX 4 12 0 0
BITMAP
20
20
20
40
50
60
C0
40
40
80
80
80
ENDCHAR
STARTCHAR OE
ENCODING 338
SWIDTH 1069 0
DWIDTH 17 0
BBX 16 12 1 0
BITMAP
0FFF
1080
2080
4080
4100
81FC
8100
8100
8100
C100
6200
3FFC
ENDCHAR
STARTCHAR oe
ENCODING 339
SWIDTH 1027 0
DWIDTH 16 0
BBX 15 9 0 0
BITMAP
1E7C
63C6
4182
8102
81FE
8100
8300
C784
7CF8
ENDCHAR
STARTCHAR Scedilla
ENCODING 350
SWIDTH 634 0
DWIDTH 10 0
BBX 9 15 1 -3
BITMAP
1F00
2180
4080
4000
4000
3000
0E00
0100
0100
8100
C200
7C00
1000
1000
E000
ENDCHAR
STARTCHAR scedilla
ENCODING 351
SWIDTH 520 0
DWIDTH 8 0
BBX 8 12 0 -3
BITMAP
1E
61
40
60
38
06
02
86
78
10
10
F0
ENDCHAR
STARTCHAR Scaron
ENCODING 352
SWIDTH 634 0
DWIDTH 10 0
BBX 9 15 1 0
BITMAP
1B00
0E00
0000
1F00
2180
4080
4000
4000
3000
0E00
0100
0100
8100
C200
7C00
ENDCHAR
STARTCHAR scaron
ENCODING 353
SWIDTH 520 0
DWIDTH 8 0
BBX 8 13 0 0
BITMAP
32
14
18
00
1E
61
40
60
38
06
02
86
78
ENDCHAR
STARTCHAR Ydieresis
ENCODING 376
SWIDTH 610 0
DWIDTH 10 0
BBX 10 15 1 0
BITMAP
3600
3600
0000
8040
4080
4100
2200
2400
1800
1000
1000
1000
2000
2000
2000
ENDCHAR
STARTCHAR Zcaron
ENCODING 381
SWIDTH 685 0
DWIDTH 11 0
BBX 12 15 0 0
BITMAP
0480
0300
0000
3FF0
0020
0040
0080
0100
0200
0400
0800
1000
2000
4000
FFC0
ENDCHAR
STARTCHAR zcaron
ENCODING 382
SWIDTH 524 0
DWIDTH 8 0
BBX 9 13 -1 0
BITMAP
1900
0A00
0C00
0000
3F80
0100
0200
0400
0800
1000
2000
4000
FE00
ENDCHAR
STARTCHAR florin
ENCODING 402
SWIDTH 636 0
DWIDTH 10 0
BBX 10 15 0 -3
BITMAP
01C0
0200
0200
0400
0400
3F80
0400
0400
0400
0800
0800
0800
0800
1000
F000
ENDCHAR
STARTCHAR circumflex
ENCODING 710
SWIDTH 500 0
DWIDTH 8 0
BBX 5 3 2 10
BITMAP
30
70
C8
ENDCHAR
STARTCHAR caron
ENCODING 711
SWIDTH 500 0
DWIDTH 8 0
BBX 5 3 2 10
BITMAP
98
70
60
ENDCHAR
STARTCHAR breve
ENCODING 728
SWIDTH 500 0
DWIDTH 8 0
BBX 5 2 2 10
BITMAP
88
F0
ENDCHAR
STARTCHAR dotaccent
ENCODING 729
SWIDTH 500 0
DWIDTH 8 0
BBX 2 2 3 10
BITMAP
C0
C0
ENDCHAR
STARTCHAR ring
ENCODING 730
SWIDTH 500 0
DWIDTH 8 0
BBX 4 4 2 10
BITMAP
60
90
90
60
ENDCHAR
STARTCHAR ogonek
ENCODING 731
SWIDTH 500 0
DWIDTH 8 0
BBX 3 3 2 -3
BITMAP
40
80
E0
ENDCHAR
STARTCHAR tilde
ENCODING 732
SWIDTH 500 0
DWIDTH 8 0
BBX 6 2 2 10
BITMAP
64
98
ENDCHAR
STARTCHAR hungarumlaut
ENCODING 733
SWIDTH 500 0
DWIDTH 8 0
BBX 6 3 2 10
BITMAP
24
48
90
ENDCHAR
STARTCHAR Omega
ENCODING 937
SWIDTH 764 0
DWIDTH 12 0
BBX 11 12 1 0
BITMAP
1F00
2080
4040
8020
8020
8020
8020
8020
C060
60C0
3180
FBE0
ENDCHAR
STARTCHAR pi
ENCODING 960
SWIDTH 588 0
DWIDTH 9 0
BBX 10 8 0 0
BITMAP
7FC0
9100
3100
3300
2200
2200
6200
6380
ENDCHAR
STARTCHAR endash
ENCODING 8211
SWIDTH 500 0
DWIDTH 8 0
BBX 8 1 0 4
BITMAP
FF
ENDCHAR
STARTCHAR emdash
ENCODING 8212
SWIDTH 1000 0
DWIDTH 16 0
BBX 16 1 0 4
BITMAP
FFFF
ENDCHAR
STARTCHAR quoteleft
ENCODING 8216
SWIDTH 317 0
DWIDTH 5 0
BBX 2 4 3 8
BITMAP
40
80
80
80
ENDCHAR
STARTCHAR quoteright
ENCODING 8217
SWIDTH 317 0
DWIDTH 5 0
BBX 2 4 3 8
BITMAP
40
40
40
80
ENDCHAR
STARTCHAR quotesinglbase
ENCODING 8218
SWIDTH 317 0
DWIDTH 5 0
BBX 2 4 0 -2
BITMAP
40
40
40
80
ENDCHAR
STARTCHAR quotedblleft
ENCODING 8220
SWIDTH 518 0
DWIDTH 8 0
BBX 5 4 3 8
BITMAP
48
90
90
90
ENDCHAR
STARTCHAR quotedblright
ENCODING 8221
SWIDTH 518 0
DWIDTH 8 0
BBX 5 4 3 8
BITMAP
48
48
48
90
ENDCHAR
STARTCHAR quotedblbase
ENCODING 8222
SWIDTH 518 0
DWIDTH 8 0
BBX 5 4 0 -2
BITMAP
48
48
48
90
ENDCHAR
STARTCHAR dagger
ENCODING 8224
SWIDTH 500 0
DWIDTH 8 0
BBX 7 14 1 -2
BITMAP
08
08
10
FE
10
10
30
20
20
20
20
60
40
40
ENDCHAR
STARTCHAR daggerdbl
ENCODING 8225
SWIDTH 500 0
DWIDTH 8 0
BBX 8 14 0 -2
BITMAP
04
04
08
7F
08
08
08
10
10
10
FE
10
20
20
ENDCHAR
STARTCHAR bullet
ENCODING 8226
SWIDTH 589 0
DWIDTH 9 0
BBX 5 5 2 4
BITMAP
70
F8
F8
F8
70
ENDCHAR
STARTCHAR ellipsis
ENCODING 8230
SWIDTH 1000 0
DWIDTH 16 0
BBX 11 2 1 0
BITMAP
8420
8420
ENDCHAR
STARTCHAR perthousand
ENCODING 8240
SWIDTH 1350 0
DWIDTH 22 0
BBX 19 12 1 0
BITMAP
382000
444000
84C000
858000
890000
720000
04E1C0
0D1220
1A1420
121420
222440
41C380
ENDCHAR
STARTCHAR guilsinglleft
ENCODING 8249
SWIDTH 399 0
DWIDTH 6 0
BBX 4 7 1 1
BITMAP
10
30
60
80
40
60
20
ENDCHAR
STARTCHAR guilsinglright
ENCODING 8250
SWIDTH 399 0
DWIDTH 6 0
BBX 4 7 1 1
BITMAP
40
60
20
10
60
C0
80
ENDCHAR
STARTCHAR Euro
ENCODING 8364
SWIDTH 636 0
DWIDTH 10 0
BBX 10 12 -1 0
BITMAP
0780
08C0
1040
1000
7F00
2000
2000
FE00
2000
2080
1180
0F00
ENDCHAR
STARTCHAR trademark
ENCODING 8482
SWIDTH 1000 0
DWIDTH 16 0
BBX 10 5 2 7
BITMAP
FE40
26C0
2740
2540
2440
ENDCHAR
STARTCHAR partialdiff
ENCODING 8706
SWIDTH 517 0
DWIDTH 8 0
BBX 7 10 1 0
BITMAP
38
64
02
02
7A
C6
86
84
8C
78
ENDCHAR
STARTCHAR Delta
ENCODING 8710
SWIDTH 668 0
DWIDTH 11 0
BBX 11 12 0 0
BITMAP
0E00
0E00
0A00
1B00
1300
3100
3180
2080
60C0
60C0
4040
FFE0
ENDCHAR
STARTCHAR product
ENCODING 8719
SWIDTH 756 0
DWIDTH 12 0
BBX 10 15 1 -3
BITMAP
FFC0
8040
8040
8040
8040
8040
8040
8040
8040
8040
8040
8040
8040
8040
8040
ENDCHAR
STARTCHAR summation
ENCODING 8721
SWIDTH 673 0
DWIDTH 11 0
BBX 10 15 0 -3
BITMAP
FFC0
8000
4000
2000
1000
0800
0400
0200
0400
0800
1000
2000
4000
8000
FFC0
ENDCHAR
STARTCHAR minus
ENCODING 8722
SWIDTH 837 0
DWIDTH 13 0
BBX 10 1 2 4
BITMAP
FFC0
ENDCHAR
STARTCHAR fraction
ENCODING 8725
SWIDTH 166 0
DWIDTH 3 0
BBX 11 12 -4 0
BITMAP
0020
0040
0080
0100
0200
0400
0400
0800
1000
2000
4000
8000
ENDCHAR
STARTCHAR periodcentered
ENCODING 8729
SWIDTH 317 0
DWIDTH 5 0
BBX 1 2 2 5
BITMAP
80
80
ENDCHAR
STARTCHAR radical
ENCODING 8730
SWIDTH 637 0
DWIDTH 10 0
BBX 10 13 0 0
BITMAP
00C0
0080
0100
0100
0100
0200
E200
2400
2400
3400
1800
1800
1000
ENDCHAR
STARTCHAR infinity
ENCODING 8734
SWIDTH 833 0
DWIDTH 13 0
BBX 10 6 2 2
BITMAP
7380
8C40
8440
8840
9CC0
7380
ENDCHAR
STARTCHAR integral
ENCODING 8747
SWIDTH 520 0
DWIDTH 8 0
BBX 7 15 0 -3
BITMAP
0E
08
10
10
10
10
10
10
10
10
10
10
10
20
E0
ENDCHAR
STARTCHAR approxequal
ENCODING 8776
SWIDTH 837 0
DWIDTH 13 0
BBX 10 5 2 3
BITMAP
7840
8780
0000
7840
8780
ENDCHAR
STARTCHAR notequal
ENCODING 8800
SWIDTH 837 0
DWIDTH 13 0
BBX 10 8 2 1
BITMAP
0080
0100
FFC0
0400
0800
FFC0
2000
4000
ENDCHAR
STARTCHAR lessequal
ENCODING 8804
SWIDTH 837 0
DWIDTH 13 0
BBX 10 9 2 0
BITMAP
00C0
0700
7800
8000
7800
0700
00C0
0000
FFC0
ENDCHAR
STARTCHAR greaterequal
ENCODING 8805
SWIDTH 837 0
DWIDTH 13 0
BBX 10 9 2 0
BITMAP
C000
3800
0780
0040
0780
3800
C000
0000
FFC0
ENDCHAR
STARTCHAR lozenge
ENCODING 9674
SWIDTH 494 0
DWIDTH 8 0
BBX 8 15 0 -3
BITMAP
18
18
24
24
42
42
81
81
81
42
42
24
24
18
18
ENDCHAR
STARTCHAR fi
ENCODING 64257
SWIDTH 645 0
DWIDTH 10 0
BBX 9 12 0 0
BITMAP
1E80
3080
2000
FC80
2080
4100
4100
4100
4100
4100
8200
8200
ENDCHAR
STARTCHAR fl
ENCODING 64258
SWIDTH 645 0
DWIDTH 10 0
BBX 9 12 0 0
BITMAP
1F80
2080
2080
FD00
2100
4100
4100
4100
4100
4200
8200
8200
ENDCHAR
STARTCHAR .notdef
ENCODING -1
SWIDTH 600 0
DWIDTH 10 0
BBX 8 14 1 -3
BITMAP
FF
81
81
81
81
81
81
81
81
81
81
81
81
FF
ENDCHAR
STARTCHAR .null
ENCODING -1
SWIDTH 0 0
DWIDTH 0 0
BBX 1 1 0 0
BITMAP
00
ENDCHAR
STARTCHAR nonmarkingreturn
ENCODING -1
SWIDTH 317 0
DWIDTH 5 0
BBX 1 1 0 0
BITMAP
00
ENDCHAR
STARTCHAR c6459
ENCODING -1
SWIDTH 500 0
DWIDTH 8 0
BBX 5 2 2 10
BITMAP
D8
D8
ENDCHAR
STARTCHAR c6460
ENCODING -1
SWIDTH 500 0
DWIDTH 8 0
BBX 2 2 5 10
BITMAP
40
80
ENDCHAR
STARTCHAR c6461
ENCODING -1
SWIDTH 500 0
DWIDTH 8 0
BBX 6 2 3 10
BITMAP
64
98
ENDCHAR
STARTCHAR c6462
ENCODING -1
SWIDTH 500 0
DWIDTH 8 0
BBX 2 2 4 10
BITMAP
80
40
ENDCHAR
STARTCHAR c6463
ENCODING -1
SWIDTH 500 0
DWIDTH 8 0
BBX 4 2 3 10
BITMAP
60
90
ENDCHAR
STARTCHAR c6466
ENCODING -1
SWIDTH 500 0
DWIDTH 8 0
BBX 4 2 3 10
BITMAP
90
60
ENDCHAR
STARTCHAR c6467
ENCODING -1
SWIDTH 400 0
DWIDTH 6 0
BBX 5 7 -1 5
BITMAP
08
18
28
48
90
F8
10
ENDCHAR
STARTCHAR c6468
ENCODING -1
SWIDTH 500 0
DWIDTH 8 0
BBX 5 2 3 10
BITMAP
88
70
ENDCHAR
STARTCHAR c6469
ENCODING -1
SWIDTH 500 0
DWIDTH 8 0
BBX 2 2 4 10
BITMAP
C0
C0
ENDCHAR
ENDFONT
